<svg width="120" height="120" viewBox="0 0 120 120" xmlns="http://www.w3.org/2000/svg">
  <!-- Background circle -->
  <circle cx="60" cy="60" r="60" fill="#f8f9fa" stroke="#2f170f" stroke-width="2"/>
  
  <!-- Sun setting with gradient effect -->
  <defs>
    <radialGradient id="sunGradient" cx="0.5" cy="0.5" r="0.5">
      <stop offset="0%" stop-color="#ff8c00"/>
      <stop offset="50%" stop-color="#ffd700"/>
      <stop offset="100%" stop-color="#ff8c00"/>
    </radialGradient>
    <linearGradient id="skyGradient" x1="0%" y1="0%" x2="0%" y2="100%">
      <stop offset="0%" stop-color="#87ceeb"/>
      <stop offset="40%" stop-color="#ffb6c1"/>
      <stop offset="70%" stop-color="#ffa07a"/>
      <stop offset="100%" stop-color="#f0e68c"/>
    </linearGradient>
    <linearGradient id="saltGradient" x1="0%" y1="0%" x2="0%" y2="100%">
      <stop offset="0%" stop-color="#f5f5dc"/>
      <stop offset="50%" stop-color="#faf0e6"/>
      <stop offset="100%" stop-color="#f0f8ff"/>
    </linearGradient>
  </defs>
  
  <!-- Sky background -->
  <rect x="0" y="0" width="120" height="70" fill="url(#skyGradient)"/>
  
  <!-- Sun setting -->
  <circle cx="60" cy="25" r="18" fill="url(#sunGradient)"/>
  
  <!-- Sun reflection on salt flats -->
  <ellipse cx="60" cy="75" rx="25" ry="8" fill="url(#sunGradient)" opacity="0.6"/>
  
  <!-- Salt flats with crystalline texture -->
  <rect x="0" y="70" width="120" height="50" fill="url(#saltGradient)"/>
  
  <!-- Salt crystal patterns -->
  <g fill="#e6e6fa" opacity="0.7">
    <!-- Small crystals scattered across the flats -->
    <polygon points="20,75 22,73 24,75 22,77"/>
    <polygon points="40,78 42,76 44,78 42,80"/>
    <polygon points="60,76 62,74 64,76 62,78"/>
    <polygon points="80,79 82,77 84,79 82,81"/>
    <polygon points="100,77 102,75 104,77 102,79"/>
    
    <!-- Larger crystals -->
    <polygon points="30,85 35,80 40,85 35,90"/>
    <polygon points="70,83 75,78 80,83 75,88"/>
    
    <!-- Salt flat texture lines -->
    <line x1="0" y1="85" x2="120" y2="85" stroke="#d3d3d3" stroke-width="0.5" opacity="0.5"/>
    <line x1="0" y1="90" x2="120" y2="90" stroke="#d3d3d3" stroke-width="0.5" opacity="0.5"/>
    <line x1="0" y1="95" x2="120" y2="95" stroke="#d3d3d3" stroke-width="0.5" opacity="0.5"/>
  </g>
  
  <!-- Text: Salt Flats Psychiatry -->
  <text x="60" y="110" text-anchor="middle" font-family="serif" font-size="12" font-weight="bold" fill="#2f170f">Salt Flats Psychiatry</text>
</svg>
